<svg id="visual" viewBox="0 0 900 600" width="900" height="600" xmlns="http://www.w3.org/2000/svg" xmlns:xlink="http://www.w3.org/1999/xlink" version="1.1"><rect x="0" y="0" width="900" height="600" fill="#015c8a"></rect><path d="M0 450L30 439.3C60 428.7 120 407.3 180 413.8C240 420.3 300 454.7 360 458.7C420 462.7 480 436.3 540 435.7C600 435 660 460 720 456.8C780 453.7 840 422.3 870 406.7L900 391L900 601L870 601C840 601 780 601 720 601C660 601 600 601 540 601C480 601 420 601 360 601C300 601 240 601 180 601C120 601 60 601 30 601L0 601Z" fill="#6da9ff" stroke-linecap="round" stroke-linejoin="miter"></path></svg>