<svg id="visual" viewBox="0 0 900 600" width="900" height="600" xmlns="http://www.w3.org/2000/svg" xmlns:xlink="http://www.w3.org/1999/xlink" version="1.1"><rect x="0" y="0" width="900" height="600" fill="#077eb9"></rect><path d="M0 351L30 333.2C60 315.3 120 279.7 180 290.5C240 301.3 300 358.7 360 365.3C420 372 480 328 540 326.7C600 325.3 660 366.7 720 361.3C780 356 840 304 870 278L900 252L900 601L870 601C840 601 780 601 720 601C660 601 600 601 540 601C480 601 420 601 360 601C300 601 240 601 180 601C120 601 60 601 30 601L0 601Z" fill="#96c1ff" stroke-linecap="round" stroke-linejoin="miter"></path></svg>